<svg class="icon-PIRQLq" width="18" height="18" fill="none" viewBox="0 0 16 16" style="min-width: 18px; min-height: 18px;"><g><path data-follow-fill="#55555D" fill-rule="evenodd" clip-rule="evenodd" d="M4.4 1.375a3.025 3.025 0 0 0 0 6.05h2.4c.345 0 .625-.28.625-.625V4.4A3.025 3.025 0 0 0 4.4 1.375ZM2.625 4.4a1.775 1.775 0 1 1 3.55 0v1.775H4.4c-.98 0-1.775-.795-1.775-1.775ZM11.6 1.375A3.025 3.025 0 0 0 8.575 4.4v2.4c0 .345.28.625.625.625h2.4a3.025 3.025 0 0 0 0-6.05ZM9.825 4.4A1.775 1.775 0 1 1 11.6 6.175H9.825V4.4Zm-8.45 7.2A3.025 3.025 0 0 1 4.4 8.575h2.4c.345 0 .625.28.625.625v2.4a3.025 3.025 0 1 1-6.05 0ZM4.4 9.825A1.775 1.775 0 1 0 6.175 11.6V9.825H4.4Zm4.8-1.25a.625.625 0 0 0-.625.625v2.4A3.025 3.025 0 1 0 11.6 8.575H9.2Zm.625 3.025V9.825H11.6A1.775 1.775 0 1 1 9.825 11.6Z" fill="currentColor"></path></g></svg>